<?xml version="1.0" standalone="no"?>
<!DOCTYPE svg PUBLIC "-//W3C//DTD SVG 20010904//EN"
 "http://www.w3.org/TR/2001/REC-SVG-20010904/DTD/svg10.dtd">
<svg version="1.0" xmlns="http://www.w3.org/2000/svg"
 width="880.000000pt" height="1280.000000pt" viewBox="0 0 880.000000 1280.000000"
 preserveAspectRatio="xMidYMid meet">
<metadata>
Created by potrace 1.15, written by Peter Selinger 2001-2017
</metadata>
<g transform="translate(0.000000,1280.000000) scale(0.100000,-0.100000)"
fill="#FF0000" stroke="none">
<path d="M299 12786 c-118 -33 -207 -109 -263 -226 l-31 -65 3 -1175 c4 -1847
26 -2660 93 -3560 163 -2197 588 -3782 1357 -5060 624 -1038 1466 -1872 2572
-2545 225 -137 256 -149 370 -149 115 0 139 9 374 151 1403 847 2416 1972
3037 3373 535 1208 821 2626 929 4600 39 731 50 1279 57 2850 5 1151 3 1457
-7 1500 -30 129 -108 226 -230 284 l-65 31 -780 0 c-748 0 -782 -1 -832 -19
-111 -42 -208 -143 -243 -255 -19 -59 -20 -93 -20 -567 l0 -504 -560 0 -560 0
0 473 c0 276 -4 498 -10 536 -19 116 -95 228 -193 285 -96 57 -97 57 -923 54
l-759 -3 -65 -31 c-81 -38 -133 -83 -177 -151 -61 -96 -63 -113 -63 -665 l0
-498 -565 0 -565 0 0 503 c0 431 -2 511 -16 558 -29 98 -81 167 -171 225 -100
65 -88 64 -908 63 -565 -1 -751 -4 -786 -13z"/>
</g>
</svg>
